<svg xmlns="http://www.w3.org/2000/svg" viewBox="0 0 697.97 147.1"><defs><style>.cls-1{fill:#d3c06c;}.cls-2{fill:#fff;}.cls-3{fill:#140900;}</style></defs><title>op_white-gold_alt</title><g id="Vrstva_2" data-name="Vrstva 2"><g id="Vrstva_1-2" data-name="Vrstva 1"><path class="cls-1" d="M137.05,56.12,123.13,32a4.26,4.26,0,0,1,.12-4.46l2.38-3.67a4.32,4.32,0,0,0-.85-5.62,75.48,75.48,0,0,0-98.45,0,4.31,4.31,0,0,0-.86,5.62l2.38,3.67A4.25,4.25,0,0,1,28,32L14.05,56.12a4.28,4.28,0,0,1-3.92,2.13L5.75,58a4.3,4.3,0,0,0-4.44,3.55,75.51,75.51,0,0,0,49.23,85.27,4.29,4.29,0,0,0,5.29-2.07l2-3.91a4.25,4.25,0,0,1,3.8-2.33H89.47a4.27,4.27,0,0,1,3.81,2.33l2,3.91a4.29,4.29,0,0,0,5.29,2.07,75.51,75.51,0,0,0,49.23-85.27A4.3,4.3,0,0,0,145.35,58l-4.38.23A4.29,4.29,0,0,1,137.05,56.12Z"/><path class="cls-2" d="M208.66,21h31.25a6.57,6.57,0,0,1,6.56,6.57v93a6.56,6.56,0,0,1-6.56,6.56H208.66a6.56,6.56,0,0,1-6.56-6.56v-93A6.57,6.57,0,0,1,208.66,21Zm26.2,90.79V36.39q0-3.41-1-4.35c-.68-.62-2.11-.94-4.27-.94H219c-2.16,0-3.58.32-4.26.94s-1,2.08-1,4.35v75.43c0,2.28.34,3.73,1,4.35s2.1.94,4.26.94h10.58c2.16,0,3.59-.31,4.27-.94S234.86,114.1,234.86,111.82Z"/><path class="cls-2" d="M264.63,21h5.28a3.16,3.16,0,0,1,3.16,3.16V124a3.16,3.16,0,0,1-3.16,3.16h-5.28a3.16,3.16,0,0,1-3.16-3.16V24.19A3.16,3.16,0,0,1,264.63,21Z"/><path class="cls-2" d="M303.23,117.11h18.08a3.16,3.16,0,0,1,3.16,3.16V124a3.17,3.17,0,0,1-3.16,3.16H291.62a3.17,3.17,0,0,1-3.16-3.16V24.19A3.17,3.17,0,0,1,291.62,21h5.29a3.17,3.17,0,0,1,3.16,3.16V114A3.16,3.16,0,0,0,303.23,117.11Z"/><path class="cls-1" d="M337.93,23.35a3.85,3.85,0,0,1,3.85-3.85h35.74q18.59,0,18.6,16.89v34.3q0,16.89-18.6,16.9H361.4a3.85,3.85,0,0,0-3.85,3.85v31.88a3.86,3.86,0,0,1-3.85,3.86H341.78a3.85,3.85,0,0,1-3.85-3.86ZM376.49,68V39.12c0-1.82-.34-3-1-3.67s-1.94-.93-3.76-.93H361.4a3.85,3.85,0,0,0-3.85,3.85V68.72a3.85,3.85,0,0,0,3.85,3.85h10.31c1.82,0,3.08-.31,3.76-.94S376.49,69.78,376.49,68Z"/><path class="cls-1" d="M426.81,89.05v34.27a3.85,3.85,0,0,1-3.85,3.86H411a3.86,3.86,0,0,1-3.85-3.86v-100A3.85,3.85,0,0,1,411,19.5h35.74q18.6,0,18.6,16.89V68.3q0,11.67-8.65,15.27a3.85,3.85,0,0,0-2.15,5l14,33.22a3.86,3.86,0,0,1-3.55,5.35H452.31a3.85,3.85,0,0,1-3.58-2.45L434.26,87.65a3.85,3.85,0,0,0-3.59-2.45h0A3.85,3.85,0,0,0,426.81,89.05Zm0-50.68V66.84a3.85,3.85,0,0,0,3.86,3.85H441c1.82,0,3.07-.31,3.75-.94s1-1.84,1-3.66v-27c0-1.82-.34-3-1-3.67s-1.93-.93-3.75-.93H430.67A3.85,3.85,0,0,0,426.81,38.37Z"/><path class="cls-1" d="M496.83,19.5h20.82q18.6,0,18.6,16.89v73.89q0,16.91-18.6,16.9H496.83q-18.6,0-18.6-16.9V36.39Q478.23,19.5,496.83,19.5Zm19.8,88.05V39.12c0-1.82-.34-3-1-3.67s-1.93-.93-3.75-.93H502.8c-1.93,0-3.24.31-3.92.93s-1,1.85-1,3.67v68.43c0,1.82.34,3,1,3.67s2,.94,3.92.94h9.05c1.82,0,3.07-.31,3.75-.94S516.63,109.37,516.63,107.55Z"/><path class="cls-1" d="M597.12,34.52H572.41a3.85,3.85,0,0,0-3.86,3.85V63.43a3.86,3.86,0,0,0,3.86,3.85h18.74A3.85,3.85,0,0,1,595,71.13v6.63a3.85,3.85,0,0,1-3.85,3.85H572.41a3.86,3.86,0,0,0-3.86,3.86v37.85a3.85,3.85,0,0,1-3.85,3.86H552.61a3.85,3.85,0,0,1-3.85-3.86v-100a3.85,3.85,0,0,1,3.85-3.85h44.51A3.85,3.85,0,0,1,601,23.35v7.31A3.86,3.86,0,0,1,597.12,34.52Z"/><path class="cls-1" d="M615,19.5h11.92a3.85,3.85,0,0,1,3.85,3.85v100a3.86,3.86,0,0,1-3.85,3.86H615a3.86,3.86,0,0,1-3.86-3.86v-100A3.85,3.85,0,0,1,615,19.5Z"/><path class="cls-1" d="M698,23.35v7.31a3.85,3.85,0,0,1-3.85,3.86H682.88A3.85,3.85,0,0,0,679,38.37v84.95a3.86,3.86,0,0,1-3.86,3.86H663.26a3.86,3.86,0,0,1-3.86-3.86V38.37a3.85,3.85,0,0,0-3.85-3.85H644.49a3.86,3.86,0,0,1-3.86-3.86V23.35a3.85,3.85,0,0,1,3.86-3.85h49.63A3.85,3.85,0,0,1,698,23.35Z"/><path class="cls-3" d="M94.05,66.47c-5.54-9.23-15.11-26.15-18.5-33.27-3.39,7.12-13,24-18.5,33.27a33.93,33.93,0,0,0-5.32,16.61,24,24,0,0,0,23.82,24.78,23.71,23.71,0,0,0,3.45-.28,24,24,0,0,0,20.38-24.5A33.94,33.94,0,0,0,94.05,66.47ZM83.2,103.77A48.51,48.51,0,0,0,94.84,73.91a28.11,28.11,0,0,1,1.94,9.25A21.46,21.46,0,0,1,83.2,103.77Z"/></g></g></svg>